<?xml version="1.0" encoding="utf-8"?>
<!-- Svg Vector Icons : http://www.onlinewebfonts.com/icon -->
<!DOCTYPE svg PUBLIC "-//W3C//DTD SVG 1.1//EN" "http://www.w3.org/Graphics/SVG/1.1/DTD/svg11.dtd">
<svg version="1.1" xmlns="http://www.w3.org/2000/svg" xmlns:xlink="http://www.w3.org/1999/xlink" x="0px" y="0px" viewBox="0 0 1000 1000" enable-background="new 0 0 1000 1000" xml:space="preserve">
<metadata> Svg Vector Icons : http://www.onlinewebfonts.com/icon </metadata>
<g><path d="M752,326.2L752,326.2l0-31.1c0-173.2-98.9-285-252-285c-153.1,0-252,111.9-252,285v31.1C164.2,326.2,96,394.3,96,478.1v360.1C96,921.9,164.2,990,248,990H752c83.8,0,151.9-68.1,151.9-151.9V478.1C904,394.3,835.8,326.2,752,326.2z M500,118c125.3,0,144,110.9,144,177v31.1H356V295C356,241.8,370,118,500,118z M816.2,838.1c0,35.4-28.8,64.1-64.2,64.1H248c-35.4,0-64.2-28.7-64.2-64.1V478.1c0-35.4,28.8-64.1,64.2-64.1H752c35.4,0,64.2,28.7,64.2,64.1L816.2,838.1L816.2,838.1z"/><path d="M536,684.1v82c0,19.8-16.2,36-36,36c-19.8,0-36-16.2-36-36v-82c-21.4-12.5-36-35.4-36-62c0-39.8,32.2-72,72-72c39.8,0,72,32.2,72,72C572,648.7,557.4,671.6,536,684.1L536,684.1z"/></g>
</svg>