<?xml version="1.0" encoding="utf-8"?>
<!-- Svg Vector Icons : http://www.onlinewebfonts.com/icon -->
<!DOCTYPE svg PUBLIC "-//W3C//DTD SVG 1.1//EN" "http://www.w3.org/Graphics/SVG/1.1/DTD/svg11.dtd">
<svg version="1.1" xmlns="http://www.w3.org/2000/svg" xmlns:xlink="http://www.w3.org/1999/xlink" x="0px" y="0px" viewBox="0 0 1000 1000" enable-background="new 0 0 1000 1000" xml:space="preserve">
<metadata> Svg Vector Icons : http://www.onlinewebfonts.com/icon </metadata>
<g><path d="M708.2,494.1c44.5-49.6,71.8-114.9,71.8-186.6c0-154.4-125.6-280-280-280c-154.4,0-280,125.6-280,280c0,154.4,125.6,280,280,280c54.4,0,105.1-15.9,148.1-42.9C800.4,602,905.2,741.4,918.6,902.5H81.5c9.1-108.5,60-209.6,142.7-281.8c14.6-12.7,16.1-34.8,3.4-49.4c-12.7-14.6-34.8-16.1-49.4-3.4C71.3,661.1,10,795.8,10,937.5c0,19.3,15.7,35,35,35h910c19.3,0,35-15.7,35-35C990,745.5,878.7,574,708.2,494.1z M290,307.5c0-115.8,94.2-210,210-210c115.8,0,210,94.2,210,210c0,115.8-94.2,210-210,210C384.2,517.5,290,423.3,290,307.5z"/></g>
</svg>